<?xml version="1.0" standalone="no"?>
<!DOCTYPE svg PUBLIC "-//W3C//DTD SVG 20010904//EN"
 "http://www.w3.org/TR/2001/REC-SVG-20010904/DTD/svg10.dtd">
<svg version="1.0" xmlns="http://www.w3.org/2000/svg"
 width="700.000000pt" height="700.000000pt" viewBox="0 0 700.000000 700.000000"
 preserveAspectRatio="xMidYMid meet">
<metadata>
Created by potrace 1.11, written by Peter Selinger 2001-2013
</metadata>
<g transform="translate(0.000000,700.000000) scale(0.100000,-0.100000)"
fill="#000000" stroke="none">
<path d="M1675 6987 c-109 -28 -231 -120 -288 -218 -44 -74 -64 -175 -60 -288
l4 -98 -33 -13 c-61 -25 -193 -116 -251 -176 -121 -122 -210 -262 -280 -439
-32 -83 -78 -250 -92 -335 -3 -19 -8 -46 -10 -60 -26 -133 -35 -412 -22 -655
27 -494 28 -1003 1 -1252 -2 -24 -6 -60 -8 -80 -29 -287 -106 -515 -209 -624
-32 -34 -54 -78 -51 -106 1 -13 2 -29 3 -37 2 -28 51 -74 88 -83 61 -15 95 0
161 73 67 73 134 197 176 329 28 84 70 289 81 390 4 33 8 74 10 90 20 157 27
776 12 1065 -20 377 -16 713 9 860 3 19 8 49 11 65 24 141 93 334 157 440 34
57 116 163 143 185 82 68 111 90 115 90 3 0 6 -21 7 -47 3 -63 7 -143 15 -283
4 -63 9 -153 11 -200 2 -47 7 -137 10 -200 6 -120 11 -206 20 -350 2 -47 7
-137 10 -200 3 -63 7 -140 10 -170 2 -30 6 -116 10 -190 3 -74 8 -166 10 -205
6 -90 14 -232 20 -370 5 -104 9 -174 20 -360 3 -44 7 -129 10 -190 6 -131 13
-270 20 -380 3 -44 7 -129 10 -190 3 -60 7 -148 10 -195 3 -47 7 -130 10 -185
6 -123 13 -244 20 -355 3 -47 7 -134 10 -195 3 -60 7 -141 10 -180 2 -38 7
-128 11 -200 3 -71 8 -155 9 -185 2 -30 6 -111 10 -180 8 -163 13 -263 20
-380 7 -116 12 -214 20 -390 7 -154 20 -192 76 -222 43 -24 102 -18 136 14 46
43 48 54 58 273 3 72 8 162 10 200 6 93 15 250 20 355 2 47 7 132 10 190 3 58
8 148 10 200 3 52 7 133 10 180 6 105 13 232 20 370 3 58 7 139 10 180 5 81
14 259 20 380 2 41 6 120 9 175 4 55 8 138 11 185 6 120 15 291 20 385 3 44 7
130 10 190 6 117 12 225 20 370 7 126 15 275 20 375 2 47 7 128 10 180 6 110
13 230 20 385 3 61 8 139 10 175 2 36 7 121 10 190 3 69 8 157 10 195 6 95 14
250 20 365 7 151 15 299 20 375 3 39 7 124 10 190 4 76 11 122 18 127 12 8 34
9 197 12 369 7 646 -147 793 -440 71 -141 107 -278 141 -529 20 -147 21 -472
1 -625 -3 -25 -8 -65 -10 -90 -6 -62 -20 -162 -50 -355 -8 -49 -17 -110 -20
-135 -3 -25 -8 -52 -10 -60 -2 -8 -7 -40 -11 -70 -3 -30 -8 -66 -9 -80 -23
-172 -23 -419 0 -595 23 -174 124 -435 229 -595 32 -49 207 -292 216 -300 3
-3 14 -18 25 -34 11 -16 29 -41 40 -56 154 -214 337 -484 413 -611 l21 -35
-92 -39 c-416 -175 -705 -554 -724 -950 -17 -358 197 -629 562 -712 44 -10
214 -11 270 -2 221 36 399 165 490 354 56 116 76 209 80 370 6 223 -40 431
-154 695 -23 51 -41 95 -41 98 0 8 224 -2 294 -14 39 -6 127 -23 196 -37 69
-14 145 -29 170 -32 78 -11 363 -15 410 -6 25 5 67 12 93 15 126 17 326 103
446 191 191 141 352 382 401 601 9 40 8 52 -10 88 -21 44 -66 74 -107 70 -13
-1 -29 -2 -37 -3 -34 -3 -75 -53 -97 -119 -45 -139 -110 -250 -200 -343 -171
-178 -395 -260 -692 -254 -126 3 -179 10 -332 41 -198 41 -217 44 -295 52 -80
7 -243 8 -324 1 l-49 -4 -67 110 c-125 207 -236 370 -491 720 -189 259 -250
353 -298 460 -80 176 -110 336 -109 575 1 192 8 252 83 740 18 116 23 154 30
235 4 39 8 75 10 82 8 25 19 233 18 357 -1 121 -8 247 -18 326 -3 19 -7 58
-10 85 -3 28 -8 57 -10 65 -2 8 -7 31 -10 50 -11 66 -34 155 -59 235 -27 82
-133 305 -146 305 -4 0 -12 11 -18 25 -17 38 -147 170 -222 225 -134 99 -336
176 -525 199 -44 5 -149 8 -232 7 -152 -3 -153 -3 -153 19 0 33 -33 126 -63
178 -55 93 -161 176 -267 208 -55 17 -189 20 -245 6z m224 -273 c21 -13 46
-37 58 -52 38 -51 57 -142 31 -142 -7 0 -23 -3 -36 -6 -17 -5 -23 -3 -22 7 6
38 -3 62 -33 95 -62 68 -168 51 -203 -31 -10 -26 -14 -81 -14 -222 0 -171 2
-191 20 -221 20 -33 71 -62 109 -62 34 0 87 31 105 61 9 16 18 45 19 66 2 33
5 38 29 41 23 3 26 0 23 -20 -2 -13 -6 -84 -10 -158 -6 -140 -12 -246 -20
-390 -3 -47 -7 -128 -10 -180 -10 -199 -15 -307 -20 -375 -3 -38 -7 -124 -10
-190 -6 -116 -8 -153 -20 -370 -8 -142 -13 -233 -20 -370 -3 -66 -8 -154 -10
-195 -3 -41 -7 -122 -10 -180 -12 -232 -15 -289 -20 -370 -3 -47 -8 -130 -10
-185 -3 -55 -7 -134 -9 -175 -8 -122 -19 -342 -20 -382 0 -21 -4 -38 -8 -38
-4 0 -7 10 -7 23 2 22 -8 219 -16 337 -2 36 -7 119 -10 185 -4 66 -8 149 -10
185 -2 36 -7 119 -10 185 -3 66 -8 154 -10 195 -3 41 -7 127 -10 190 -3 63 -7
147 -10 185 -5 72 -12 202 -20 360 -2 50 -7 131 -9 180 -3 50 -8 142 -11 205
-3 63 -8 146 -10 183 -2 38 -7 116 -10 175 -7 141 -14 280 -30 557 -4 76 -13
257 -20 390 -2 33 -7 119 -10 190 -4 72 -7 143 -6 159 4 75 67 155 143 182 49
18 134 7 177 -22z m2491 -5319 c143 -307 194 -581 149 -800 -41 -201 -192
-330 -399 -340 -286 -14 -509 198 -487 463 7 94 24 155 67 249 107 230 287
392 545 489 33 13 66 23 72 23 7 1 31 -37 53 -84z"/>
</g>
</svg>
