<?xml version="1.0" encoding="iso-8859-1"?>
<!-- Generator: Adobe Illustrator 17.1.0, SVG Export Plug-In . SVG Version: 6.00 Build 0)  -->
<!DOCTYPE svg PUBLIC "-//W3C//DTD SVG 1.1//EN" "http://www.w3.org/Graphics/SVG/1.1/DTD/svg11.dtd">
<svg version="1.1" id="Capa_1" xmlns="http://www.w3.org/2000/svg" xmlns:xlink="http://www.w3.org/1999/xlink" x="0px" y="0px"
	 viewBox="0 0 415.318 415.318" style="enable-background:new 0 0 415.318 415.318;" xml:space="preserve">
<path d="M387.161,272.683c-4.035-0.827-8.002,1.784-8.85,5.823c-0.038,0.184-4.024,18.361-20.867,29.003
	c-13.768,8.698-32.422,10.292-55.443,4.733c-12.537-3.025-24.801-3.718-36.361-2.105c-10.71-18.736-25.02-38.658-40.977-60.101
	c-21.628-29.063-17.66-54.316-12.636-86.289c3.738-23.787,7.975-50.749,1.208-82.891c-4.698-22.319-15.377-38.262-31.738-47.384
	c-15.83-8.823-33.88-9.411-47.859-7.843C132.632,11.329,120.686,0,106.136,0c-7.368,0-14.295,2.868-19.504,8.077
	c-5.121,5.12-7.974,11.901-8.068,19.129c0,0.009,0,0.018-0.001,0.027c-0.001,0.116-0.008,0.231-0.008,0.348
	c0,0.067,0.008,0.133,0.01,0.2c0.002,0.066-0.003,0.133,0.001,0.201l0.457,8.533c-11.387,4.44-44.985,23.837-40.992,97.317
	c1.67,30.717,5.579,102.65-13.294,119.063c-3.125,2.718-3.456,7.455-0.737,10.581c1.482,1.705,3.566,2.578,5.662,2.578
	c1.745,0,3.498-0.605,4.919-1.841c22.52-19.583,21.32-77.988,18.429-131.195c-2.993-55.079,16.508-74.119,26.882-80.304
	L98.643,402.76c0,0.007,0,0.014,0.001,0.021l0.001,0.023c0.004,0.081,0.018,0.159,0.024,0.239c0.015,0.167,0.026,0.334,0.051,0.496
	c0.009,0.053,0.022,0.102,0.03,0.152c0.033,0.19,0.068,0.38,0.115,0.564c0.06,0.235,0.131,0.466,0.211,0.691
	c0.005,0.012,0.012,0.024,0.016,0.037c0.079,0.215,0.166,0.426,0.264,0.632c0.012,0.024,0.026,0.046,0.038,0.07
	c0.093,0.191,0.192,0.38,0.301,0.562c0.027,0.045,0.06,0.088,0.087,0.133c0.098,0.155,0.197,0.31,0.306,0.457
	c0.046,0.063,0.099,0.121,0.146,0.184c0.097,0.123,0.193,0.247,0.298,0.363c0.065,0.074,0.137,0.143,0.205,0.214
	c0.094,0.098,0.187,0.196,0.285,0.288c0.084,0.078,0.173,0.149,0.26,0.224c0.092,0.079,0.182,0.157,0.276,0.231
	c0.097,0.074,0.198,0.142,0.298,0.211c0.094,0.066,0.186,0.133,0.282,0.193c0.104,0.065,0.211,0.124,0.317,0.185
	c0.101,0.057,0.201,0.114,0.305,0.167c0.105,0.054,0.215,0.102,0.324,0.15c0.111,0.049,0.223,0.1,0.337,0.143
	c0.104,0.04,0.212,0.076,0.318,0.112c0.125,0.042,0.251,0.083,0.378,0.119c0.102,0.027,0.205,0.052,0.309,0.076
	c0.138,0.031,0.275,0.063,0.416,0.086c0.102,0.018,0.205,0.032,0.308,0.045c0.143,0.02,0.286,0.035,0.431,0.045
	c0.051,0.004,0.101,0.014,0.152,0.017c0.127,0.007,0.253,0.009,0.379,0.01c0.005,0,0.01,0.001,0.016,0.001c0.002,0,0.005,0,0.007,0
	c0.002,0,0.005,0,0.007,0c0.006,0,0.011-0.001,0.016-0.001c0.126,0,0.252-0.003,0.379-0.01c0.052-0.003,0.102-0.013,0.152-0.017
	c0.145-0.01,0.288-0.025,0.431-0.045c0.103-0.013,0.206-0.027,0.308-0.045c0.141-0.023,0.278-0.055,0.416-0.086
	c0.104-0.024,0.207-0.049,0.309-0.076c0.127-0.036,0.253-0.077,0.378-0.119c0.106-0.036,0.214-0.072,0.318-0.112
	c0.114-0.044,0.226-0.095,0.337-0.143c0.109-0.049,0.219-0.097,0.324-0.15c0.104-0.053,0.203-0.11,0.305-0.167
	c0.106-0.061,0.214-0.119,0.317-0.185c0.097-0.06,0.188-0.127,0.282-0.193c0.1-0.069,0.201-0.137,0.298-0.211
	c0.095-0.074,0.185-0.152,0.276-0.231c0.087-0.074,0.176-0.146,0.26-0.224c0.099-0.092,0.191-0.19,0.285-0.288
	c0.068-0.071,0.14-0.14,0.205-0.214c0.104-0.116,0.201-0.24,0.298-0.363c0.048-0.063,0.101-0.121,0.146-0.184
	c0.108-0.147,0.208-0.302,0.306-0.457c0.027-0.045,0.06-0.088,0.087-0.133c0.108-0.182,0.208-0.37,0.301-0.562
	c0.012-0.024,0.026-0.046,0.038-0.07c0.098-0.206,0.185-0.417,0.264-0.632c0.004-0.013,0.011-0.025,0.016-0.037
	c0.08-0.226,0.151-0.456,0.211-0.691c0.047-0.185,0.082-0.374,0.115-0.564c0.008-0.051,0.021-0.1,0.03-0.152
	c0.024-0.162,0.036-0.329,0.051-0.496c0.007-0.08,0.021-0.158,0.024-0.239l0.001-0.023c0.001-0.007,0.001-0.014,0.001-0.021
	l19.391-361.941c11.927-1.629,27.861-1.668,41.176,5.755c12.403,6.915,20.601,19.488,24.365,37.372
	c6.198,29.445,2.362,53.861-1.349,77.473c-5.128,32.631-9.971,63.453,15.421,97.572c14.606,19.627,27.75,37.843,37.794,54.74
	c-3.044,1.035-6.017,2.25-8.907,3.645c-15.625,7.538-27.947,19.827-34.698,34.605c-9.873,21.61-5.44,43.298,11.293,55.25
	c7.449,5.32,16.576,8.088,25.771,8.088c5.169,0,10.358-0.875,15.283-2.661c12.134-4.402,20.922-13.96,24.112-26.223
	c5.039-19.372,0.561-39.747-9.96-61.733c8.612-0.578,17.242,0.211,25.164,2.123c27.245,6.577,49.862,4.293,67.221-6.79
	c22.215-14.186,27.113-37.564,27.311-38.552C393.823,277.435,391.206,273.512,387.161,272.683z M106.134,262.201L93.56,27.475
	c0.026-3.321,1.327-6.439,3.678-8.79c2.376-2.376,5.536-3.685,8.898-3.685c6.876,0,12.481,5.547,12.577,12.402l-0.048,0.887
	c-1.494,0.366-2.83,0.723-3.962,1.045v-1.651c0-4.142-3.357-7.5-7.5-7.5c-4.143,0-7.5,3.358-7.5,7.5v19.386
	c0,4.143,3.357,7.5,7.5,7.5c4.143,0,7.5-3.357,7.5-7.5v-2.031c0.224-0.059,0.447-0.124,0.669-0.204
	c0.053-0.019,0.923-0.326,2.448-0.778L106.134,262.201z M268.759,382.659c-1.956,7.52-7.18,13.165-14.71,15.896
	c-8.976,3.26-19.659,1.869-27.22-3.532c-8.451-6.036-14.562-18.875-6.368-36.811c7.672-16.795,21.771-26.552,37.469-30.921
	C268.333,347.762,273.052,366.157,268.759,382.659z"/>
<g>
</g>
<g>
</g>
<g>
</g>
<g>
</g>
<g>
</g>
<g>
</g>
<g>
</g>
<g>
</g>
<g>
</g>
<g>
</g>
<g>
</g>
<g>
</g>
<g>
</g>
<g>
</g>
<g>
</g>
</svg>
